<svg width="263" height="87" viewBox="0 0 263 87" fill="none" xmlns="http://www.w3.org/2000/svg">
<path d="M69.5742 78.5039C70.1992 78.5039 70.707 78.332 71.0977 77.9883C71.4883 77.6445 71.6914 77.1875 71.707 76.6172H74.8828C74.875 77.4766 74.6406 78.2656 74.1797 78.9844C73.7188 79.6953 73.0859 80.25 72.2812 80.6484C71.4844 81.0391 70.6016 81.2344 69.6328 81.2344C67.8203 81.2344 66.3906 80.6602 65.3438 79.5117C64.2969 78.3555 63.7734 76.7617 63.7734 74.7305V74.5078C63.7734 72.5547 64.293 70.9961 65.332 69.832C66.3711 68.668 67.7969 68.0859 69.6094 68.0859C71.1953 68.0859 72.4648 68.5391 73.418 69.4453C74.3789 70.3438 74.8672 71.543 74.8828 73.043H71.707C71.6914 72.3867 71.4883 71.8555 71.0977 71.4492C70.707 71.0352 70.1914 70.8281 69.5508 70.8281C68.7617 70.8281 68.1641 71.1172 67.7578 71.6953C67.3594 72.2656 67.1602 73.1953 67.1602 74.4844V74.8359C67.1602 76.1406 67.3594 77.0781 67.7578 77.6484C68.1562 78.2188 68.7617 78.5039 69.5742 78.5039ZM76.2891 74.543C76.2891 73.2852 76.5312 72.1641 77.0156 71.1797C77.5 70.1953 78.1953 69.4336 79.1016 68.8945C80.0156 68.3555 81.0742 68.0859 82.2773 68.0859C83.9883 68.0859 85.3828 68.6094 86.4609 69.6562C87.5469 70.7031 88.1523 72.125 88.2773 73.9219L88.3008 74.7891C88.3008 76.7344 87.7578 78.2969 86.6719 79.4766C85.5859 80.6484 84.1289 81.2344 82.3008 81.2344C80.4727 81.2344 79.0117 80.6484 77.918 79.4766C76.832 78.3047 76.2891 76.7109 76.2891 74.6953V74.543ZM79.6758 74.7891C79.6758 75.9922 79.9023 76.9141 80.3555 77.5547C80.8086 78.1875 81.457 78.5039 82.3008 78.5039C83.1211 78.5039 83.7617 78.1914 84.2227 77.5664C84.6836 76.9336 84.9141 75.9258 84.9141 74.543C84.9141 73.3633 84.6836 72.4492 84.2227 71.8008C83.7617 71.1523 83.1133 70.8281 82.2773 70.8281C81.4492 70.8281 80.8086 71.1523 80.3555 71.8008C79.9023 72.4414 79.6758 73.4375 79.6758 74.7891ZM93.9609 81H90.5625V63H93.9609V81ZM100.336 81H96.9375V63H100.336V81ZM108.973 81.2344C107.113 81.2344 105.598 80.6641 104.426 79.5234C103.262 78.3828 102.68 76.8633 102.68 74.9648V74.6367C102.68 73.3633 102.926 72.2266 103.418 71.2266C103.91 70.2188 104.605 69.4453 105.504 68.9062C106.41 68.3594 107.441 68.0859 108.598 68.0859C110.332 68.0859 111.695 68.6328 112.688 69.7266C113.688 70.8203 114.188 72.3711 114.188 74.3789V75.7617H106.113C106.223 76.5898 106.551 77.2539 107.098 77.7539C107.652 78.2539 108.352 78.5039 109.195 78.5039C110.5 78.5039 111.52 78.0312 112.254 77.0859L113.918 78.9492C113.41 79.668 112.723 80.2305 111.855 80.6367C110.988 81.0352 110.027 81.2344 108.973 81.2344ZM108.586 70.8281C107.914 70.8281 107.367 71.0547 106.945 71.5078C106.531 71.9609 106.266 72.6094 106.148 73.4531H110.859V73.1836C110.844 72.4336 110.641 71.8555 110.25 71.4492C109.859 71.0352 109.305 70.8281 108.586 70.8281ZM121.395 78.5039C122.02 78.5039 122.527 78.332 122.918 77.9883C123.309 77.6445 123.512 77.1875 123.527 76.6172H126.703C126.695 77.4766 126.461 78.2656 126 78.9844C125.539 79.6953 124.906 80.25 124.102 80.6484C123.305 81.0391 122.422 81.2344 121.453 81.2344C119.641 81.2344 118.211 80.6602 117.164 79.5117C116.117 78.3555 115.594 76.7617 115.594 74.7305V74.5078C115.594 72.5547 116.113 70.9961 117.152 69.832C118.191 68.668 119.617 68.0859 121.43 68.0859C123.016 68.0859 124.285 68.5391 125.238 69.4453C126.199 70.3438 126.688 71.543 126.703 73.043H123.527C123.512 72.3867 123.309 71.8555 122.918 71.4492C122.527 71.0352 122.012 70.8281 121.371 70.8281C120.582 70.8281 119.984 71.1172 119.578 71.6953C119.18 72.2656 118.98 73.1953 118.98 74.4844V74.8359C118.98 76.1406 119.18 77.0781 119.578 77.6484C119.977 78.2188 120.582 78.5039 121.395 78.5039ZM132.691 65.2031V68.3203H134.859V70.8047H132.691V77.1328C132.691 77.6016 132.781 77.9375 132.961 78.1406C133.141 78.3438 133.484 78.4453 133.992 78.4453C134.367 78.4453 134.699 78.418 134.988 78.3633V80.9297C134.324 81.1328 133.641 81.2344 132.938 81.2344C130.562 81.2344 129.352 80.0352 129.305 77.6367V70.8047H127.453V68.3203H129.305V65.2031H132.691ZM140.32 81H136.922V68.3203H140.32V81ZM136.723 65.0391C136.723 64.5312 136.891 64.1133 137.227 63.7852C137.57 63.457 138.035 63.293 138.621 63.293C139.199 63.293 139.66 63.457 140.004 63.7852C140.348 64.1133 140.52 64.5312 140.52 65.0391C140.52 65.5547 140.344 65.9766 139.992 66.3047C139.648 66.6328 139.191 66.7969 138.621 66.7969C138.051 66.7969 137.59 66.6328 137.238 66.3047C136.895 65.9766 136.723 65.5547 136.723 65.0391ZM142.594 74.543C142.594 73.2852 142.836 72.1641 143.32 71.1797C143.805 70.1953 144.5 69.4336 145.406 68.8945C146.32 68.3555 147.379 68.0859 148.582 68.0859C150.293 68.0859 151.688 68.6094 152.766 69.6562C153.852 70.7031 154.457 72.125 154.582 73.9219L154.605 74.7891C154.605 76.7344 154.062 78.2969 152.977 79.4766C151.891 80.6484 150.434 81.2344 148.605 81.2344C146.777 81.2344 145.316 80.6484 144.223 79.4766C143.137 78.3047 142.594 76.7109 142.594 74.6953V74.543ZM145.98 74.7891C145.98 75.9922 146.207 76.9141 146.66 77.5547C147.113 78.1875 147.762 78.5039 148.605 78.5039C149.426 78.5039 150.066 78.1914 150.527 77.5664C150.988 76.9336 151.219 75.9258 151.219 74.543C151.219 73.3633 150.988 72.4492 150.527 71.8008C150.066 71.1523 149.418 70.8281 148.582 70.8281C147.754 70.8281 147.113 71.1523 146.66 71.8008C146.207 72.4414 145.98 73.4375 145.98 74.7891ZM159.809 68.3203L159.914 69.7852C160.82 68.6523 162.035 68.0859 163.559 68.0859C164.902 68.0859 165.902 68.4805 166.559 69.2695C167.215 70.0586 167.551 71.2383 167.566 72.8086V81H164.18V72.8906C164.18 72.1719 164.023 71.6523 163.711 71.332C163.398 71.0039 162.879 70.8398 162.152 70.8398C161.199 70.8398 160.484 71.2461 160.008 72.0586V81H156.621V68.3203H159.809ZM177.012 77.4961C177.012 77.082 176.805 76.7578 176.391 76.5234C175.984 76.2812 175.328 76.0664 174.422 75.8789C171.406 75.2461 169.898 73.9648 169.898 72.0352C169.898 70.9102 170.363 69.9727 171.293 69.2227C172.23 68.4648 173.453 68.0859 174.961 68.0859C176.57 68.0859 177.855 68.4648 178.816 69.2227C179.785 69.9805 180.27 70.9648 180.27 72.1758H176.883C176.883 71.6914 176.727 71.293 176.414 70.9805C176.102 70.6602 175.613 70.5 174.949 70.5C174.379 70.5 173.938 70.6289 173.625 70.8867C173.312 71.1445 173.156 71.4727 173.156 71.8711C173.156 72.2461 173.332 72.5508 173.684 72.7852C174.043 73.0117 174.645 73.2109 175.488 73.3828C176.332 73.5469 177.043 73.7344 177.621 73.9453C179.41 74.6016 180.305 75.7383 180.305 77.3555C180.305 78.5117 179.809 79.4492 178.816 80.168C177.824 80.8789 176.543 81.2344 174.973 81.2344C173.91 81.2344 172.965 81.0469 172.137 80.6719C171.316 80.2891 170.672 79.7695 170.203 79.1133C169.734 78.4492 169.5 77.7344 169.5 76.9688H172.711C172.742 77.5703 172.965 78.0312 173.379 78.3516C173.793 78.6719 174.348 78.832 175.043 78.832C175.691 78.832 176.18 78.7109 176.508 78.4688C176.844 78.2188 177.012 77.8945 177.012 77.4961Z" fill="white"/>
<path d="M32.7188 40.4062H14.7188V59H5.34375V13.5H34.9688V21.0938H14.7188V32.8438H32.7188V40.4062ZM58.3438 59C57.9271 58.1875 57.625 57.1771 57.4375 55.9688C55.25 58.4062 52.4062 59.625 48.9062 59.625C45.5938 59.625 42.8438 58.6667 40.6562 56.75C38.4896 54.8333 37.4062 52.4167 37.4062 49.5C37.4062 45.9167 38.7292 43.1667 41.375 41.25C44.0417 39.3333 47.8854 38.3646 52.9062 38.3438H57.0625V36.4062C57.0625 34.8438 56.6562 33.5938 55.8438 32.6562C55.0521 31.7188 53.7917 31.25 52.0625 31.25C50.5417 31.25 49.3438 31.6146 48.4688 32.3438C47.6146 33.0729 47.1875 34.0729 47.1875 35.3438H38.1562C38.1562 33.3854 38.7604 31.5729 39.9688 29.9062C41.1771 28.2396 42.8854 26.9375 45.0938 26C47.3021 25.0417 49.7812 24.5625 52.5312 24.5625C56.6979 24.5625 60 25.6146 62.4375 27.7188C64.8958 29.8021 66.125 32.7396 66.125 36.5312V51.1875C66.1458 54.3958 66.5938 56.8229 67.4688 58.4688V59H58.3438ZM50.875 52.7188C52.2083 52.7188 53.4375 52.4271 54.5625 51.8438C55.6875 51.2396 56.5208 50.4375 57.0625 49.4375V43.625H53.6875C49.1667 43.625 46.7604 45.1875 46.4688 48.3125L46.4375 48.8438C46.4375 49.9688 46.8333 50.8958 47.625 51.625C48.4167 52.3542 49.5 52.7188 50.875 52.7188ZM91.375 49.6562C91.375 48.5521 90.8229 47.6875 89.7188 47.0625C88.6354 46.4167 86.8854 45.8438 84.4688 45.3438C76.4271 43.6562 72.4062 40.2396 72.4062 35.0938C72.4062 32.0938 73.6458 29.5938 76.125 27.5938C78.625 25.5729 81.8854 24.5625 85.9062 24.5625C90.1979 24.5625 93.625 25.5729 96.1875 27.5938C98.7708 29.6146 100.062 32.2396 100.062 35.4688H91.0312C91.0312 34.1771 90.6146 33.1146 89.7812 32.2812C88.9479 31.4271 87.6458 31 85.875 31C84.3542 31 83.1771 31.3438 82.3438 32.0312C81.5104 32.7188 81.0938 33.5938 81.0938 34.6562C81.0938 35.6562 81.5625 36.4688 82.5 37.0938C83.4583 37.6979 85.0625 38.2292 87.3125 38.6875C89.5625 39.125 91.4583 39.625 93 40.1875C97.7708 41.9375 100.156 44.9688 100.156 49.2812C100.156 52.3646 98.8333 54.8646 96.1875 56.7812C93.5417 58.6771 90.125 59.625 85.9375 59.625C83.1042 59.625 80.5833 59.125 78.375 58.125C76.1875 57.1042 74.4688 55.7188 73.2188 53.9688C71.9688 52.1979 71.3438 50.2917 71.3438 48.25H79.9062C79.9896 49.8542 80.5833 51.0833 81.6875 51.9375C82.7917 52.7917 84.2708 53.2188 86.125 53.2188C87.8542 53.2188 89.1562 52.8958 90.0312 52.25C90.9271 51.5833 91.375 50.7188 91.375 49.6562ZM114.812 28.875C117.208 26 120.219 24.5625 123.844 24.5625C131.177 24.5625 134.896 28.8229 135 37.3438V59H125.969V37.5938C125.969 35.6562 125.552 34.2292 124.719 33.3125C123.885 32.375 122.5 31.9062 120.562 31.9062C117.917 31.9062 116 32.9271 114.812 34.9688V59H105.781V11H114.812V28.875ZM151.344 59H142.281V25.1875H151.344V59ZM141.75 16.4375C141.75 15.0833 142.198 13.9688 143.094 13.0938C144.01 12.2188 145.25 11.7812 146.812 11.7812C148.354 11.7812 149.583 12.2188 150.5 13.0938C151.417 13.9688 151.875 15.0833 151.875 16.4375C151.875 17.8125 151.406 18.9375 150.469 19.8125C149.552 20.6875 148.333 21.125 146.812 21.125C145.292 21.125 144.062 20.6875 143.125 19.8125C142.208 18.9375 141.75 17.8125 141.75 16.4375ZM157.406 41.7812C157.406 38.4271 158.052 35.4375 159.344 32.8125C160.635 30.1875 162.49 28.1562 164.906 26.7188C167.344 25.2812 170.167 24.5625 173.375 24.5625C177.938 24.5625 181.656 25.9583 184.531 28.75C187.427 31.5417 189.042 35.3333 189.375 40.125L189.438 42.4375C189.438 47.625 187.99 51.7917 185.094 54.9375C182.198 58.0625 178.312 59.625 173.438 59.625C168.562 59.625 164.667 58.0625 161.75 54.9375C158.854 51.8125 157.406 47.5625 157.406 42.1875V41.7812ZM166.438 42.4375C166.438 45.6458 167.042 48.1042 168.25 49.8125C169.458 51.5 171.188 52.3438 173.438 52.3438C175.625 52.3438 177.333 51.5104 178.562 49.8438C179.792 48.1562 180.406 45.4688 180.406 41.7812C180.406 38.6354 179.792 36.1979 178.562 34.4688C177.333 32.7396 175.604 31.875 173.375 31.875C171.167 31.875 169.458 32.7396 168.25 34.4688C167.042 36.1771 166.438 38.8333 166.438 42.4375ZM203.312 25.1875L203.594 29.0938C206.01 26.0729 209.25 24.5625 213.312 24.5625C216.896 24.5625 219.562 25.6146 221.312 27.7188C223.062 29.8229 223.958 32.9688 224 37.1562V59H214.969V37.375C214.969 35.4583 214.552 34.0729 213.719 33.2188C212.885 32.3438 211.5 31.9062 209.562 31.9062C207.021 31.9062 205.115 32.9896 203.844 35.1562V59H194.812V25.1875H203.312ZM250.469 59C250.052 58.1875 249.75 57.1771 249.562 55.9688C247.375 58.4062 244.531 59.625 241.031 59.625C237.719 59.625 234.969 58.6667 232.781 56.75C230.615 54.8333 229.531 52.4167 229.531 49.5C229.531 45.9167 230.854 43.1667 233.5 41.25C236.167 39.3333 240.01 38.3646 245.031 38.3438H249.188V36.4062C249.188 34.8438 248.781 33.5938 247.969 32.6562C247.177 31.7188 245.917 31.25 244.188 31.25C242.667 31.25 241.469 31.6146 240.594 32.3438C239.74 33.0729 239.312 34.0729 239.312 35.3438H230.281C230.281 33.3854 230.885 31.5729 232.094 29.9062C233.302 28.2396 235.01 26.9375 237.219 26C239.427 25.0417 241.906 24.5625 244.656 24.5625C248.823 24.5625 252.125 25.6146 254.562 27.7188C257.021 29.8021 258.25 32.7396 258.25 36.5312V51.1875C258.271 54.3958 258.719 56.8229 259.594 58.4688V59H250.469ZM243 52.7188C244.333 52.7188 245.562 52.4271 246.688 51.8438C247.812 51.2396 248.646 50.4375 249.188 49.4375V43.625H245.812C241.292 43.625 238.885 45.1875 238.594 48.3125L238.562 48.8438C238.562 49.9688 238.958 50.8958 239.75 51.625C240.542 52.3542 241.625 52.7188 243 52.7188Z" fill="white"/>
</svg>
