<svg width="393" height="206" viewBox="0 0 393 206" fill="none" xmlns="http://www.w3.org/2000/svg">
<rect x="6" y="8" width="381" height="148" rx="7" stroke="#FB50FF" stroke-width="12"/>
<path d="M50.6934 30.4688V130H30.2539V30.4688H50.6934ZM79.2676 30.4688H96.6309L122.197 103.545L147.764 30.4688H165.127L129.17 130H115.225L79.2676 30.4688ZM69.9023 30.4688H87.1973L90.3418 101.699V130H69.9023V30.4688ZM157.197 30.4688H174.561V130H154.053V101.699L157.197 30.4688ZM234.238 47.4902L207.168 130H185.361L222.344 30.4688H236.221L234.238 47.4902ZM256.729 130L229.59 47.4902L227.402 30.4688H241.416L278.604 130H256.729ZM255.498 92.9492V109.014H202.93V92.9492H255.498ZM368.838 30.4688V130H348.33L308.34 63.2812V130H287.832V30.4688H308.34L348.398 97.2559V30.4688H368.838Z" fill="#FB50FF"/>
<path d="M15.4844 190.453H20.1562C20.0625 191.984 19.6406 193.344 18.8906 194.531C18.151 195.719 17.1146 196.646 15.7812 197.312C14.4583 197.979 12.8646 198.312 11 198.312C9.54167 198.312 8.23438 198.062 7.07812 197.562C5.92188 197.052 4.93229 196.323 4.10938 195.375C3.29688 194.427 2.67708 193.281 2.25 191.938C1.82292 190.594 1.60938 189.089 1.60938 187.422V185.844C1.60938 184.177 1.82812 182.672 2.26562 181.328C2.71354 179.974 3.34896 178.823 4.17188 177.875C5.00521 176.927 6 176.198 7.15625 175.688C8.3125 175.177 9.60417 174.922 11.0312 174.922C12.9271 174.922 14.526 175.266 15.8281 175.953C17.1406 176.641 18.1562 177.589 18.875 178.797C19.6042 180.005 20.0417 181.38 20.1875 182.922H15.5C15.4479 182.005 15.2656 181.229 14.9531 180.594C14.6406 179.948 14.1667 179.464 13.5312 179.141C12.9062 178.807 12.0729 178.641 11.0312 178.641C10.25 178.641 9.56771 178.786 8.98438 179.078C8.40104 179.37 7.91146 179.812 7.51562 180.406C7.11979 181 6.82292 181.75 6.625 182.656C6.4375 183.552 6.34375 184.604 6.34375 185.812V187.422C6.34375 188.599 6.43229 189.635 6.60938 190.531C6.78646 191.417 7.05729 192.167 7.42188 192.781C7.79688 193.385 8.27604 193.844 8.85938 194.156C9.45312 194.458 10.1667 194.609 11 194.609C11.9792 194.609 12.7865 194.453 13.4219 194.141C14.0573 193.828 14.5417 193.365 14.875 192.75C15.2188 192.135 15.4219 191.37 15.4844 190.453ZM37.8594 194.344V198H26.4062V194.344H37.8594ZM27.9219 175.25V198H23.2344V175.25H27.9219ZM58.2031 186.094V187.172C58.2031 188.901 57.9688 190.453 57.5 191.828C57.0312 193.203 56.3698 194.375 55.5156 195.344C54.6615 196.302 53.6406 197.036 52.4531 197.547C51.276 198.057 49.9688 198.312 48.5312 198.312C47.1042 198.312 45.7969 198.057 44.6094 197.547C43.4323 197.036 42.4115 196.302 41.5469 195.344C40.6823 194.375 40.0104 193.203 39.5312 191.828C39.0625 190.453 38.8281 188.901 38.8281 187.172V186.094C38.8281 184.354 39.0625 182.802 39.5312 181.438C40 180.062 40.6615 178.891 41.5156 177.922C42.3802 176.953 43.401 176.214 44.5781 175.703C45.7656 175.193 47.0729 174.938 48.5 174.938C49.9375 174.938 51.2448 175.193 52.4219 175.703C53.6094 176.214 54.6302 176.953 55.4844 177.922C56.349 178.891 57.0156 180.062 57.4844 181.438C57.9635 182.802 58.2031 184.354 58.2031 186.094ZM53.4688 187.172V186.062C53.4688 184.854 53.3594 183.792 53.1406 182.875C52.9219 181.958 52.599 181.188 52.1719 180.562C51.7448 179.938 51.224 179.469 50.6094 179.156C49.9948 178.833 49.2917 178.672 48.5 178.672C47.7083 178.672 47.0052 178.833 46.3906 179.156C45.7865 179.469 45.2708 179.938 44.8438 180.562C44.4271 181.188 44.1094 181.958 43.8906 182.875C43.6719 183.792 43.5625 184.854 43.5625 186.062V187.172C43.5625 188.37 43.6719 189.432 43.8906 190.359C44.1094 191.276 44.4323 192.052 44.8594 192.688C45.2865 193.312 45.8073 193.786 46.4219 194.109C47.0365 194.432 47.7396 194.594 48.5312 194.594C49.3229 194.594 50.026 194.432 50.6406 194.109C51.2552 193.786 51.7708 193.312 52.1875 192.688C52.6042 192.052 52.9219 191.276 53.1406 190.359C53.3594 189.432 53.4688 188.37 53.4688 187.172ZM70.6875 175.25V198H66.0156V175.25H70.6875ZM77.6875 175.25V178.922H59.125V175.25H77.6875ZM95.5312 184.516V188.172H83.6562V184.516H95.5312ZM85.0469 175.25V198H80.3594V175.25H85.0469ZM98.875 175.25V198H94.2031V175.25H98.875ZM107.938 175.25V198H103.266V175.25H107.938ZM130.844 175.25V198H126.156L117.016 182.75V198H112.328V175.25H117.016L126.172 190.516V175.25H130.844ZM152.953 186.109V195.125C152.599 195.552 152.052 196.016 151.312 196.516C150.573 197.005 149.62 197.427 148.453 197.781C147.286 198.135 145.875 198.312 144.219 198.312C142.75 198.312 141.411 198.073 140.203 197.594C138.995 197.104 137.953 196.391 137.078 195.453C136.214 194.516 135.547 193.37 135.078 192.016C134.609 190.651 134.375 189.094 134.375 187.344V185.922C134.375 184.172 134.599 182.615 135.047 181.25C135.505 179.885 136.156 178.734 137 177.797C137.844 176.859 138.849 176.146 140.016 175.656C141.182 175.167 142.479 174.922 143.906 174.922C145.885 174.922 147.51 175.245 148.781 175.891C150.052 176.526 151.021 177.411 151.688 178.547C152.365 179.672 152.781 180.964 152.938 182.422H148.391C148.276 181.651 148.057 180.979 147.734 180.406C147.411 179.833 146.948 179.385 146.344 179.062C145.75 178.74 144.979 178.578 144.031 178.578C143.25 178.578 142.552 178.74 141.938 179.062C141.333 179.375 140.823 179.839 140.406 180.453C139.99 181.068 139.672 181.828 139.453 182.734C139.234 183.641 139.125 184.693 139.125 185.891V187.344C139.125 188.531 139.24 189.583 139.469 190.5C139.698 191.406 140.036 192.172 140.484 192.797C140.943 193.411 141.505 193.875 142.172 194.188C142.839 194.5 143.615 194.656 144.5 194.656C145.24 194.656 145.854 194.594 146.344 194.469C146.844 194.344 147.245 194.193 147.547 194.016C147.859 193.828 148.099 193.651 148.266 193.484V189.453H143.984V186.109H152.953ZM173.953 179.141L167.766 198H162.781L171.234 175.25H174.406L173.953 179.141ZM179.094 198L172.891 179.141L172.391 175.25H175.594L184.094 198H179.094ZM178.812 189.531V193.203H166.797V189.531H178.812ZM204.719 175.25V198H200.031L190.891 182.75V198H186.203V175.25H190.891L200.047 190.516V175.25H204.719ZM215.781 198H210.828L210.859 194.344H215.781C217.01 194.344 218.047 194.068 218.891 193.516C219.734 192.953 220.37 192.135 220.797 191.062C221.234 189.99 221.453 188.693 221.453 187.172V186.062C221.453 184.896 221.328 183.87 221.078 182.984C220.839 182.099 220.479 181.354 220 180.75C219.521 180.146 218.932 179.693 218.234 179.391C217.536 179.078 216.734 178.922 215.828 178.922H210.734V175.25H215.828C217.349 175.25 218.74 175.51 220 176.031C221.271 176.542 222.37 177.276 223.297 178.234C224.224 179.193 224.938 180.339 225.438 181.672C225.948 182.995 226.203 184.469 226.203 186.094V187.172C226.203 188.786 225.948 190.26 225.438 191.594C224.938 192.927 224.224 194.073 223.297 195.031C222.38 195.979 221.281 196.714 220 197.234C218.729 197.745 217.323 198 215.781 198ZM213.484 175.25V198H208.797V175.25H213.484ZM246.828 179.141L240.641 198H235.656L244.109 175.25H247.281L246.828 179.141ZM251.969 198L245.766 179.141L245.266 175.25H248.469L256.969 198H251.969ZM251.688 189.531V193.203H239.672V189.531H251.688ZM267.938 189.891H262.141V186.234H267.938C268.833 186.234 269.562 186.089 270.125 185.797C270.688 185.495 271.099 185.078 271.359 184.547C271.62 184.016 271.75 183.417 271.75 182.75C271.75 182.073 271.62 181.443 271.359 180.859C271.099 180.276 270.688 179.807 270.125 179.453C269.562 179.099 268.833 178.922 267.938 178.922H263.766V198H259.078V175.25H267.938C269.719 175.25 271.245 175.573 272.516 176.219C273.797 176.854 274.776 177.734 275.453 178.859C276.13 179.984 276.469 181.271 276.469 182.719C276.469 184.188 276.13 185.458 275.453 186.531C274.776 187.604 273.797 188.432 272.516 189.016C271.245 189.599 269.719 189.891 267.938 189.891ZM288.562 189.891H282.766V186.234H288.562C289.458 186.234 290.188 186.089 290.75 185.797C291.312 185.495 291.724 185.078 291.984 184.547C292.245 184.016 292.375 183.417 292.375 182.75C292.375 182.073 292.245 181.443 291.984 180.859C291.724 180.276 291.312 179.807 290.75 179.453C290.188 179.099 289.458 178.922 288.562 178.922H284.391V198H279.703V175.25H288.562C290.344 175.25 291.87 175.573 293.141 176.219C294.422 176.854 295.401 177.734 296.078 178.859C296.755 179.984 297.094 181.271 297.094 182.719C297.094 184.188 296.755 185.458 296.078 186.531C295.401 187.604 294.422 188.432 293.141 189.016C291.87 189.599 290.344 189.891 288.562 189.891ZM306.984 179.141L300.797 198H295.812L304.266 175.25H307.438L306.984 179.141ZM312.125 198L305.922 179.141L305.422 175.25H308.625L317.125 198H312.125ZM311.844 189.531V193.203H299.828V189.531H311.844ZM319.234 175.25H327.719C329.458 175.25 330.953 175.51 332.203 176.031C333.464 176.552 334.432 177.323 335.109 178.344C335.786 179.365 336.125 180.62 336.125 182.109C336.125 183.328 335.917 184.375 335.5 185.25C335.094 186.115 334.516 186.839 333.766 187.422C333.026 187.995 332.156 188.453 331.156 188.797L329.672 189.578H322.297L322.266 185.922H327.75C328.573 185.922 329.255 185.776 329.797 185.484C330.339 185.193 330.745 184.786 331.016 184.266C331.297 183.745 331.438 183.141 331.438 182.453C331.438 181.724 331.302 181.094 331.031 180.562C330.76 180.031 330.349 179.625 329.797 179.344C329.245 179.062 328.552 178.922 327.719 178.922H323.922V198H319.234V175.25ZM331.953 198L326.766 187.859L331.719 187.828L336.969 197.781V198H331.953ZM355 194.344V198H342.891V194.344H355ZM344.422 175.25V198H339.734V175.25H344.422ZM353.422 184.516V188.078H342.891V184.516H353.422ZM354.984 175.25V178.922H342.891V175.25H354.984ZM372.359 194.344V198H360.906V194.344H372.359ZM362.422 175.25V198H357.734V175.25H362.422ZM386.891 192.047C386.891 191.641 386.828 191.276 386.703 190.953C386.589 190.62 386.37 190.318 386.047 190.047C385.724 189.766 385.271 189.49 384.688 189.219C384.104 188.948 383.349 188.667 382.422 188.375C381.391 188.042 380.411 187.667 379.484 187.25C378.568 186.833 377.755 186.349 377.047 185.797C376.349 185.234 375.797 184.583 375.391 183.844C374.995 183.104 374.797 182.245 374.797 181.266C374.797 180.318 375.005 179.458 375.422 178.688C375.839 177.906 376.422 177.24 377.172 176.688C377.922 176.125 378.807 175.693 379.828 175.391C380.859 175.089 381.99 174.938 383.219 174.938C384.896 174.938 386.359 175.24 387.609 175.844C388.859 176.448 389.828 177.276 390.516 178.328C391.214 179.38 391.562 180.583 391.562 181.938H386.906C386.906 181.271 386.766 180.688 386.484 180.188C386.214 179.677 385.797 179.276 385.234 178.984C384.682 178.693 383.984 178.547 383.141 178.547C382.328 178.547 381.651 178.672 381.109 178.922C380.568 179.161 380.161 179.49 379.891 179.906C379.62 180.312 379.484 180.771 379.484 181.281C379.484 181.667 379.578 182.016 379.766 182.328C379.964 182.641 380.255 182.932 380.641 183.203C381.026 183.474 381.5 183.729 382.062 183.969C382.625 184.208 383.276 184.443 384.016 184.672C385.255 185.047 386.344 185.469 387.281 185.938C388.229 186.406 389.021 186.932 389.656 187.516C390.292 188.099 390.771 188.76 391.094 189.5C391.417 190.24 391.578 191.078 391.578 192.016C391.578 193.005 391.385 193.891 391 194.672C390.615 195.453 390.057 196.115 389.328 196.656C388.599 197.198 387.729 197.609 386.719 197.891C385.708 198.172 384.578 198.312 383.328 198.312C382.203 198.312 381.094 198.167 380 197.875C378.906 197.573 377.911 197.12 377.016 196.516C376.13 195.911 375.422 195.141 374.891 194.203C374.359 193.266 374.094 192.156 374.094 190.875H378.797C378.797 191.583 378.906 192.182 379.125 192.672C379.344 193.161 379.651 193.557 380.047 193.859C380.453 194.161 380.932 194.38 381.484 194.516C382.047 194.651 382.661 194.719 383.328 194.719C384.141 194.719 384.807 194.604 385.328 194.375C385.859 194.146 386.25 193.828 386.5 193.422C386.76 193.016 386.891 192.557 386.891 192.047Z" fill="#9207FF"/>
</svg>
