<svg width="393" height="164" viewBox="0 0 393 164" fill="none" xmlns="http://www.w3.org/2000/svg">
<rect x="6" y="8" width="381" height="148" rx="7" stroke="#FB50FF" stroke-width="12"/>
<path d="M50.6934 30.4688V130H30.2539V30.4688H50.6934ZM79.2676 30.4688H96.6309L122.197 103.545L147.764 30.4688H165.127L129.17 130H115.225L79.2676 30.4688ZM69.9023 30.4688H87.1973L90.3418 101.699V130H69.9023V30.4688ZM157.197 30.4688H174.561V130H154.053V101.699L157.197 30.4688ZM234.238 47.4902L207.168 130H185.361L222.344 30.4688H236.221L234.238 47.4902ZM256.729 130L229.59 47.4902L227.402 30.4688H241.416L278.604 130H256.729ZM255.498 92.9492V109.014H202.93V92.9492H255.498ZM368.838 30.4688V130H348.33L308.34 63.2812V130H287.832V30.4688H308.34L348.398 97.2559V30.4688H368.838Z" fill="#FB50FF"/>
</svg>
